<?xml version="1.0" encoding="UTF-8"?>
<svg width="263px" height="59px" viewBox="0 0 263 59" version="1.1" xmlns="http://www.w3.org/2000/svg" xmlns:xlink="http://www.w3.org/1999/xlink">
    <!-- Generator: Sketch 64 (93537) - https://sketch.com -->
    <title>lgo</title>
    <desc>Created with Sketch.</desc>
    <g id="Page-1" stroke="none" stroke-width="1" fill="none" fill-rule="evenodd">
        <g id="Desktop-HD" transform="translate(-33.000000, -15.000000)">
            <g id="lgo" transform="translate(33.000000, 15.000000)">
                <text id="TRAVEL-AGENT" font-family="Poppins-Light, Poppins" font-size="29" font-weight="300" fill="#FFFFFF">
                    <tspan x="70" y="41">TRAVEL AGENT</tspan>
                </text>
                <g id="logo" fill="#FFC400" fill-rule="nonzero">
                    <g id="maleta" transform="translate(3.009947, 0.880802)">
                        <path d="M32.7046927,0.169603866 C33.1813408,0.0785043898 33.6760894,-0.121914458 34.1497207,0.102797584 C38.4124022,1.5725358 42.672067,3.05442062 46.9377654,4.51201224 C47.3269274,4.669918 47.8186592,4.77620072 48.0147486,5.20436826 C48.3918436,5.74185518 48.0388827,6.37651486 47.897095,6.93525832 C46.9830168,9.5194468 46.1564246,12.1370384 45.2031285,14.7060437 C45.5349721,14.8639494 45.8698324,15.0218552 46.2046927,15.1797609 C46.2650279,15.3680332 46.3887151,15.741541 46.4490503,15.9298133 C47.7070391,16.382274 49.0072626,16.7405986 50.232067,17.2811222 C50.8173184,17.5544206 50.8776536,18.2983997 50.6544134,18.8358866 C49.8579888,21.2743159 48.9861453,23.688452 48.1897207,26.129918 C43.9149721,27.3324311 39.4381006,26.4457295 35.1,26.1602845 C39.1877095,27.3111745 43.4775419,27.6786091 47.7100559,27.52374 C47.0765363,29.2880332 46.4912849,31.0675096 45.8939665,32.8469861 C48.512514,32.9593421 51.0767598,32.3550489 53.6379888,31.9025882 C51.8218994,32.8166196 49.8640223,33.4057295 47.8910615,33.8642636 C44.581676,34.5930594 41.1667039,34.2711745 37.8422346,33.8369337 C31.4617877,32.907719 25.2834637,30.7759913 19.5576536,27.8152583 C18.197095,27.0955725 16.8214525,26.3880332 15.5664804,25.489185 C16.0340782,25.6501274 16.4926257,25.8171431 16.9572067,25.9902321 C17.1382123,25.489185 17.3101676,24.9881379 17.4851397,24.4840541 C22.842905,26.8010175 28.5385475,28.4863578 34.3669274,28.9600751 C30.4240223,27.8608081 26.4358659,26.8738971 22.6287151,25.3373526 C21.0056983,24.6328499 19.4309497,23.758295 18.1307263,22.5405986 C18.8155307,20.7489756 19.3706145,18.9087662 20.0131844,17.1019599 C22.6618994,18.7204939 25.5157542,20.0566196 28.5234637,20.8279285 C25.693743,19.5100227 22.7855866,18.2498133 20.2997765,16.3245777 C21.210838,13.6675096 22.0132961,10.9648918 23.0782123,8.3655201 C24.7736313,7.97379235 26.297095,9.15201224 27.9110615,9.50426355 C28.3454749,9.00625308 28.9699441,9.16719549 29.5280447,9.28562481 C30.5748603,6.2429023 31.5191061,3.16070334 32.7046927,0.169603866 M33.4468156,3.05138397 C32.7107263,5.36227402 31.847933,7.63065099 31.1389944,9.95065099 C31.4527374,10.0599704 31.7694972,10.1692897 32.086257,10.2816458 C32.1254749,10.4668814 32.2008939,10.8403892 32.237095,11.0256248 C35.5283799,12.1309651 38.7985475,13.3031117 42.0898324,14.408452 C42.2557542,14.2900227 42.584581,14.0562007 42.7505028,13.9377714 C43.0310615,14.0288709 43.3116201,14.1199704 43.5951955,14.2141065 C44.3916201,11.8758866 45.1458101,9.52855675 45.9241341,7.1873002 C46.1684916,6.61033685 45.7612291,5.98175046 45.1759777,5.87546774 C41.7459218,4.67902795 38.3158659,3.48866146 34.8797765,2.31955151 C34.2794413,1.98248345 33.5614525,2.40154104 33.4468156,3.05138397 Z" id="Shape"></path>
                        <path d="M14.0550838,26.6734782 C14.9118436,27.5358866 15.6328492,28.5197609 16.4986592,29.376096 C18.5168715,31.4440541 20.9121788,33.0747348 23.283352,34.6932688 C29.0604469,38.5832164 35.1271508,42.0358866 41.4201117,45.0087662 C43.8365363,46.0351536 46.4852514,46.4572478 49.0887151,46.5817505 C46.503352,47.2224834 43.8063687,46.9674049 41.2149721,46.4936876 C40.8227933,47.7447871 40.3582123,48.9715934 39.9901676,50.2318028 C36.6928492,50.0131641 33.6368715,48.6436353 30.6472626,47.3378761 C28.1131844,46.2386091 25.6545251,44.9814363 23.1898324,43.7333735 C25.9803352,45.9804939 29.1871508,47.6172478 32.3818994,49.1932688 C34.6414525,50.265206 36.958324,51.2338971 39.3596648,51.9505463 C38.9162011,53.165206 38.6627933,54.4800751 37.9991061,55.6005986 C36.8044693,56.4235306 35.413743,55.1936876 34.1738547,54.9689756 C33.7484916,55.6947348 33.1330726,56.2716981 32.3728492,56.6239494 C35.5193296,56.4873002 38.6748603,56.5935829 41.8243575,56.575363 C42.5604469,56.4660437 42.4820112,57.337562 42.2949721,57.7930594 C28.1976536,57.8143159 14.0973184,57.847719 1.80987301e-14,57.7778761 C0.0181005587,57.3800751 0.0301675978,56.9883473 0.0422346369,56.5935829 C10.4530726,56.5449965 20.8669274,56.5510698 31.2807821,56.5905463 C30.0469274,56.2109651 29.2625698,55.0722217 29.3138547,53.7786091 C22.3692737,53.7755725 15.4246927,53.7543159 8.48011173,53.787719 C8.3775419,53.3808081 8.30815642,52.9647871 8.41072626,52.5518028 C14.5739665,52.4667766 20.7402235,52.5943159 26.9034637,52.4849965 C24.1431285,51.4798656 21.361676,50.5354677 18.5802235,49.5971431 C18.0100559,50.7510698 16.676648,51.5679285 15.4035754,51.0577714 C14.0973184,50.6660437 13.5814525,49.1780855 13.8408939,47.9300227 C12.7820112,47.5474049 11.6688268,47.2892897 10.6702793,46.7578761 C10.196648,46.3934782 10.2207821,45.7132688 10.422905,45.2122217 C10.8422346,43.927719 11.3158659,42.664473 11.7261453,41.3799704 C13.6146369,42.8679285 15.5423464,44.3467766 17.7083799,45.4035306 C15.8017877,43.8609128 13.8077095,42.4276143 11.9946369,40.7665672 C12.8785475,37.8544206 13.9313966,34.9938971 14.9027933,32.1090803 C17.1653631,34.1041588 19.5305028,36.0870908 22.290838,37.3381903 C19.8351955,35.409918 17.1442458,33.6729547 15.2557542,31.1282426 C15.4277095,30.5664625 15.6026816,30.0046824 15.7716201,29.4429023 C15.0807821,28.6017505 14.4744134,27.6846824 14.0550838,26.6734782 Z" id="Path"></path>
                    </g>
                    <path d="M0.00994736842,13.936108 C3.38191461,13.4496652 5.71540248,16.2857185 8.20960739,17.9867386 C9.05646259,17.9745011 9.86931995,17.714453 10.6945402,17.5523054 C10.3329268,17.0781002 9.32226386,16.3530251 10.0918512,15.7809194 C10.9881578,15.5147526 11.3899505,16.7599238 11.9462787,17.2586041 C14.0016024,16.9557247 16.0167469,16.4448067 18.0658893,16.0990958 C18.3904141,16.603895 18.7211203,17.1086941 19.0518265,17.6134932 C16.6750687,18.5894382 14.3106737,19.5898583 11.9339158,20.5627439 C13.1269308,21.4652636 14.264313,22.4412085 15.478963,23.3161937 C16.4216303,23.5884793 17.4570189,23.3406688 18.433684,23.5119946 C19.0240101,23.7567457 19.4999798,24.2034164 20.0099474,24.5766618 C18.6654875,24.8795413 17.3086647,25.1304112 15.9580234,25.4057562 C15.5284144,26.2317911 15.1080775,27.0608854 14.6661056,27.8808016 C13.8810647,27.1740828 14.3230365,26.0543466 14.2704944,25.1457081 C12.2738942,24.0963378 10.3174733,22.9735422 8.30541947,21.9547657 C6.5684391,23.2886592 4.82218659,24.6103151 3.06666194,25.9136147 C2.75449999,25.6413291 2.44233803,25.3659841 2.13017608,25.0967579 C2.70504859,24.1514068 3.29228395,23.2121745 3.87333788,22.2698828 C3.47772669,22.0190129 3.0821155,21.768143 2.68650431,21.5203326 C2.72359286,21.3643037 2.79776996,21.0522461 2.83485851,20.8962173 C3.42518458,20.6881788 3.90733572,21.2235719 4.41730326,21.4316103 C4.75419092,20.847267 5.09416928,20.2629238 5.43105693,19.6785806 C3.24901397,18.1947771 0.940251804,16.4906976 0.00994736842,13.936108 Z" id="avion"></path>
                </g>
            </g>
        </g>
    </g>
</svg>